<?xml version='1.0' encoding='UTF-8'?>
<svg width="14.5mm" height="14.5mm" version="1.1" xmlns="http://www.w3.org/2000/svg"><rect x="2mm" y="2mm" width="0.5mm" height="0.5mm" /><rect x="2.5mm" y="2mm" width="0.5mm" height="0.5mm" /><rect x="3mm" y="2mm" width="0.5mm" height="0.5mm" /><rect x="3.5mm" y="2mm" width="0.5mm" height="0.5mm" /><rect x="4mm" y="2mm" width="0.5mm" height="0.5mm" /><rect x="4.5mm" y="2mm" width="0.5mm" height="0.5mm" /><rect x="5mm" y="2mm" width="0.5mm" height="0.5mm" /><rect x="6mm" y="2mm" width="0.5mm" height="0.5mm" /><rect x="6.5mm" y="2mm" width="0.5mm" height="0.5mm" /><rect x="7.5mm" y="2mm" width="0.5mm" height="0.5mm" /><rect x="8mm" y="2mm" width="0.5mm" height="0.5mm" /><rect x="9mm" y="2mm" width="0.5mm" height="0.5mm" /><rect x="9.5mm" y="2mm" width="0.5mm" height="0.5mm" /><rect x="10mm" y="2mm" width="0.5mm" height="0.5mm" /><rect x="10.5mm" y="2mm" width="0.5mm" height="0.5mm" /><rect x="11mm" y="2mm" width="0.5mm" height="0.5mm" /><rect x="11.5mm" y="2mm" width="0.5mm" height="0.5mm" /><rect x="12mm" y="2mm" width="0.5mm" height="0.5mm" /><rect x="2mm" y="2.5mm" width="0.5mm" height="0.5mm" /><rect x="5mm" y="2.5mm" width="0.5mm" height="0.5mm" /><rect x="6mm" y="2.5mm" width="0.5mm" height="0.5mm" /><rect x="7.5mm" y="2.5mm" width="0.5mm" height="0.5mm" /><rect x="8mm" y="2.5mm" width="0.5mm" height="0.5mm" /><rect x="9mm" y="2.5mm" width="0.5mm" height="0.5mm" /><rect x="12mm" y="2.5mm" width="0.5mm" height="0.5mm" /><rect x="2mm" y="3mm" width="0.5mm" height="0.5mm" /><rect x="3mm" y="3mm" width="0.5mm" height="0.5mm" /><rect x="3.5mm" y="3mm" width="0.5mm" height="0.5mm" /><rect x="4mm" y="3mm" width="0.5mm" height="0.5mm" /><rect x="5mm" y="3mm" width="0.5mm" height="0.5mm" /><rect x="6mm" y="3mm" width="0.5mm" height="0.5mm" /><rect x="7mm" y="3mm" width="0.5mm" height="0.5mm" /><rect x="9mm" y="3mm" width="0.5mm" height="0.5mm" /><rect x="10mm" y="3mm" width="0.5mm" height="0.5mm" /><rect x="10.5mm" y="3mm" width="0.5mm" height="0.5mm" /><rect x="11mm" y="3mm" width="0.5mm" height="0.5mm" /><rect x="12mm" y="3mm" width="0.5mm" height="0.5mm" /><rect x="2mm" y="3.5mm" width="0.5mm" height="0.5mm" /><rect x="3mm" y="3.5mm" width="0.5mm" height="0.5mm" /><rect x="3.5mm" y="3.5mm" width="0.5mm" height="0.5mm" /><rect x="4mm" y="3.5mm" width="0.5mm" height="0.5mm" /><rect x="5mm" y="3.5mm" width="0.5mm" height="0.5mm" /><rect x="6.5mm" y="3.5mm" width="0.5mm" height="0.5mm" /><rect x="7.5mm" y="3.5mm" width="0.5mm" height="0.5mm" /><rect x="8mm" y="3.5mm" width="0.5mm" height="0.5mm" /><rect x="9mm" y="3.5mm" width="0.5mm" height="0.5mm" /><rect x="10mm" y="3.5mm" width="0.5mm" height="0.5mm" /><rect x="10.5mm" y="3.5mm" width="0.5mm" height="0.5mm" /><rect x="11mm" y="3.5mm" width="0.5mm" height="0.5mm" /><rect x="12mm" y="3.5mm" width="0.5mm" height="0.5mm" /><rect x="2mm" y="4mm" width="0.5mm" height="0.5mm" /><rect x="3mm" y="4mm" width="0.5mm" height="0.5mm" /><rect x="3.5mm" y="4mm" width="0.5mm" height="0.5mm" /><rect x="4mm" y="4mm" width="0.5mm" height="0.5mm" /><rect x="5mm" y="4mm" width="0.5mm" height="0.5mm" /><rect x="6mm" y="4mm" width="0.5mm" height="0.5mm" /><rect x="8mm" y="4mm" width="0.5mm" height="0.5mm" /><rect x="9mm" y="4mm" width="0.5mm" height="0.5mm" /><rect x="10mm" y="4mm" width="0.5mm" height="0.5mm" /><rect x="10.5mm" y="4mm" width="0.5mm" height="0.5mm" /><rect x="11mm" y="4mm" width="0.5mm" height="0.5mm" /><rect x="12mm" y="4mm" width="0.5mm" height="0.5mm" /><rect x="2mm" y="4.5mm" width="0.5mm" height="0.5mm" /><rect x="5mm" y="4.5mm" width="0.5mm" height="0.5mm" /><rect x="7mm" y="4.5mm" width="0.5mm" height="0.5mm" /><rect x="7.5mm" y="4.5mm" width="0.5mm" height="0.5mm" /><rect x="8mm" y="4.5mm" width="0.5mm" height="0.5mm" /><rect x="9mm" y="4.5mm" width="0.5mm" height="0.5mm" /><rect x="12mm" y="4.5mm" width="0.5mm" height="0.5mm" /><rect x="2mm" y="5mm" width="0.5mm" height="0.5mm" /><rect x="2.5mm" y="5mm" width="0.5mm" height="0.5mm" /><rect x="3mm" y="5mm" width="0.5mm" height="0.5mm" /><rect x="3.5mm" y="5mm" width="0.5mm" height="0.5mm" /><rect x="4mm" y="5mm" width="0.5mm" height="0.5mm" /><rect x="4.5mm" y="5mm" width="0.5mm" height="0.5mm" /><rect x="5mm" y="5mm" width="0.5mm" height="0.5mm" /><rect x="6mm" y="5mm" width="0.5mm" height="0.5mm" /><rect x="7mm" y="5mm" width="0.5mm" height="0.5mm" /><rect x="8mm" y="5mm" width="0.5mm" height="0.5mm" /><rect x="9mm" y="5mm" width="0.5mm" height="0.5mm" /><rect x="9.5mm" y="5mm" width="0.5mm" height="0.5mm" /><rect x="10mm" y="5mm" width="0.5mm" height="0.5mm" /><rect x="10.5mm" y="5mm" width="0.5mm" height="0.5mm" /><rect x="11mm" y="5mm" width="0.5mm" height="0.5mm" /><rect x="11.5mm" y="5mm" width="0.5mm" height="0.5mm" /><rect x="12mm" y="5mm" width="0.5mm" height="0.5mm" /><rect x="7.5mm" y="5.5mm" width="0.5mm" height="0.5mm" /><rect x="8mm" y="5.5mm" width="0.5mm" height="0.5mm" /><rect x="2mm" y="6mm" width="0.5mm" height="0.5mm" /><rect x="3.5mm" y="6mm" width="0.5mm" height="0.5mm" /><rect x="4mm" y="6mm" width="0.5mm" height="0.5mm" /><rect x="4.5mm" y="6mm" width="0.5mm" height="0.5mm" /><rect x="5mm" y="6mm" width="0.5mm" height="0.5mm" /><rect x="5.5mm" y="6mm" width="0.5mm" height="0.5mm" /><rect x="6mm" y="6mm" width="0.5mm" height="0.5mm" /><rect x="6.5mm" y="6mm" width="0.5mm" height="0.5mm" /><rect x="7mm" y="6mm" width="0.5mm" height="0.5mm" /><rect x="8mm" y="6mm" width="0.5mm" height="0.5mm" /><rect x="8.5mm" y="6mm" width="0.5mm" height="0.5mm" /><rect x="10mm" y="6mm" width="0.5mm" height="0.5mm" /><rect x="11mm" y="6mm" width="0.5mm" height="0.5mm" /><rect x="11.5mm" y="6mm" width="0.5mm" height="0.5mm" /><rect x="12mm" y="6mm" width="0.5mm" height="0.5mm" /><rect x="2mm" y="6.5mm" width="0.5mm" height="0.5mm" /><rect x="2.5mm" y="6.5mm" width="0.5mm" height="0.5mm" /><rect x="3mm" y="6.5mm" width="0.5mm" height="0.5mm" /><rect x="4mm" y="6.5mm" width="0.5mm" height="0.5mm" /><rect x="4.5mm" y="6.5mm" width="0.5mm" height="0.5mm" /><rect x="7mm" y="6.5mm" width="0.5mm" height="0.5mm" /><rect x="8mm" y="6.5mm" width="0.5mm" height="0.5mm" /><rect x="9mm" y="6.5mm" width="0.5mm" height="0.5mm" /><rect x="10mm" y="6.5mm" width="0.5mm" height="0.5mm" /><rect x="10.5mm" y="6.5mm" width="0.5mm" height="0.5mm" /><rect x="2.5mm" y="7mm" width="0.5mm" height="0.5mm" /><rect x="3.5mm" y="7mm" width="0.5mm" height="0.5mm" /><rect x="4mm" y="7mm" width="0.5mm" height="0.5mm" /><rect x="4.5mm" y="7mm" width="0.5mm" height="0.5mm" /><rect x="5mm" y="7mm" width="0.5mm" height="0.5mm" /><rect x="7mm" y="7mm" width="0.5mm" height="0.5mm" /><rect x="8.5mm" y="7mm" width="0.5mm" height="0.5mm" /><rect x="9mm" y="7mm" width="0.5mm" height="0.5mm" /><rect x="10mm" y="7mm" width="0.5mm" height="0.5mm" /><rect x="11mm" y="7mm" width="0.5mm" height="0.5mm" /><rect x="11.5mm" y="7mm" width="0.5mm" height="0.5mm" /><rect x="12mm" y="7mm" width="0.5mm" height="0.5mm" /><rect x="2mm" y="7.5mm" width="0.5mm" height="0.5mm" /><rect x="3.5mm" y="7.5mm" width="0.5mm" height="0.5mm" /><rect x="7.5mm" y="7.5mm" width="0.5mm" height="0.5mm" /><rect x="11mm" y="7.5mm" width="0.5mm" height="0.5mm" /><rect x="11.5mm" y="7.5mm" width="0.5mm" height="0.5mm" /><rect x="3mm" y="8mm" width="0.5mm" height="0.5mm" /><rect x="5mm" y="8mm" width="0.5mm" height="0.5mm" /><rect x="5.5mm" y="8mm" width="0.5mm" height="0.5mm" /><rect x="6mm" y="8mm" width="0.5mm" height="0.5mm" /><rect x="7mm" y="8mm" width="0.5mm" height="0.5mm" /><rect x="9mm" y="8mm" width="0.5mm" height="0.5mm" /><rect x="10.5mm" y="8mm" width="0.5mm" height="0.5mm" /><rect x="11.5mm" y="8mm" width="0.5mm" height="0.5mm" /><rect x="12mm" y="8mm" width="0.5mm" height="0.5mm" /><rect x="6mm" y="8.5mm" width="0.5mm" height="0.5mm" /><rect x="6.5mm" y="8.5mm" width="0.5mm" height="0.5mm" /><rect x="7mm" y="8.5mm" width="0.5mm" height="0.5mm" /><rect x="7.5mm" y="8.5mm" width="0.5mm" height="0.5mm" /><rect x="8mm" y="8.5mm" width="0.5mm" height="0.5mm" /><rect x="10.5mm" y="8.5mm" width="0.5mm" height="0.5mm" /><rect x="11.5mm" y="8.5mm" width="0.5mm" height="0.5mm" /><rect x="2mm" y="9mm" width="0.5mm" height="0.5mm" /><rect x="2.5mm" y="9mm" width="0.5mm" height="0.5mm" /><rect x="3mm" y="9mm" width="0.5mm" height="0.5mm" /><rect x="3.5mm" y="9mm" width="0.5mm" height="0.5mm" /><rect x="4mm" y="9mm" width="0.5mm" height="0.5mm" /><rect x="4.5mm" y="9mm" width="0.5mm" height="0.5mm" /><rect x="5mm" y="9mm" width="0.5mm" height="0.5mm" /><rect x="6mm" y="9mm" width="0.5mm" height="0.5mm" /><rect x="6.5mm" y="9mm" width="0.5mm" height="0.5mm" /><rect x="8mm" y="9mm" width="0.5mm" height="0.5mm" /><rect x="8.5mm" y="9mm" width="0.5mm" height="0.5mm" /><rect x="9mm" y="9mm" width="0.5mm" height="0.5mm" /><rect x="9.5mm" y="9mm" width="0.5mm" height="0.5mm" /><rect x="10mm" y="9mm" width="0.5mm" height="0.5mm" /><rect x="10.5mm" y="9mm" width="0.5mm" height="0.5mm" /><rect x="11mm" y="9mm" width="0.5mm" height="0.5mm" /><rect x="2mm" y="9.5mm" width="0.5mm" height="0.5mm" /><rect x="5mm" y="9.5mm" width="0.5mm" height="0.5mm" /><rect x="6mm" y="9.5mm" width="0.5mm" height="0.5mm" /><rect x="7mm" y="9.5mm" width="0.5mm" height="0.5mm" /><rect x="7.5mm" y="9.5mm" width="0.5mm" height="0.5mm" /><rect x="8mm" y="9.5mm" width="0.5mm" height="0.5mm" /><rect x="8.5mm" y="9.5mm" width="0.5mm" height="0.5mm" /><rect x="9.5mm" y="9.5mm" width="0.5mm" height="0.5mm" /><rect x="10mm" y="9.5mm" width="0.5mm" height="0.5mm" /><rect x="10.5mm" y="9.5mm" width="0.5mm" height="0.5mm" /><rect x="11mm" y="9.5mm" width="0.5mm" height="0.5mm" /><rect x="2mm" y="10mm" width="0.5mm" height="0.5mm" /><rect x="3mm" y="10mm" width="0.5mm" height="0.5mm" /><rect x="3.5mm" y="10mm" width="0.5mm" height="0.5mm" /><rect x="4mm" y="10mm" width="0.5mm" height="0.5mm" /><rect x="5mm" y="10mm" width="0.5mm" height="0.5mm" /><rect x="6mm" y="10mm" width="0.5mm" height="0.5mm" /><rect x="7mm" y="10mm" width="0.5mm" height="0.5mm" /><rect x="7.5mm" y="10mm" width="0.5mm" height="0.5mm" /><rect x="8mm" y="10mm" width="0.5mm" height="0.5mm" /><rect x="9mm" y="10mm" width="0.5mm" height="0.5mm" /><rect x="9.5mm" y="10mm" width="0.5mm" height="0.5mm" /><rect x="10.5mm" y="10mm" width="0.5mm" height="0.5mm" /><rect x="11.5mm" y="10mm" width="0.5mm" height="0.5mm" /><rect x="12mm" y="10mm" width="0.5mm" height="0.5mm" /><rect x="2mm" y="10.5mm" width="0.5mm" height="0.5mm" /><rect x="3mm" y="10.5mm" width="0.5mm" height="0.5mm" /><rect x="3.5mm" y="10.5mm" width="0.5mm" height="0.5mm" /><rect x="4mm" y="10.5mm" width="0.5mm" height="0.5mm" /><rect x="5mm" y="10.5mm" width="0.5mm" height="0.5mm" /><rect x="6mm" y="10.5mm" width="0.5mm" height="0.5mm" /><rect x="6.5mm" y="10.5mm" width="0.5mm" height="0.5mm" /><rect x="7.5mm" y="10.5mm" width="0.5mm" height="0.5mm" /><rect x="8mm" y="10.5mm" width="0.5mm" height="0.5mm" /><rect x="9.5mm" y="10.5mm" width="0.5mm" height="0.5mm" /><rect x="10.5mm" y="10.5mm" width="0.5mm" height="0.5mm" /><rect x="11mm" y="10.5mm" width="0.5mm" height="0.5mm" /><rect x="2mm" y="11mm" width="0.5mm" height="0.5mm" /><rect x="3mm" y="11mm" width="0.5mm" height="0.5mm" /><rect x="3.5mm" y="11mm" width="0.5mm" height="0.5mm" /><rect x="4mm" y="11mm" width="0.5mm" height="0.5mm" /><rect x="5mm" y="11mm" width="0.5mm" height="0.5mm" /><rect x="6.5mm" y="11mm" width="0.5mm" height="0.5mm" /><rect x="9mm" y="11mm" width="0.5mm" height="0.5mm" /><rect x="9.5mm" y="11mm" width="0.5mm" height="0.5mm" /><rect x="10mm" y="11mm" width="0.5mm" height="0.5mm" /><rect x="11mm" y="11mm" width="0.5mm" height="0.5mm" /><rect x="11.5mm" y="11mm" width="0.5mm" height="0.5mm" /><rect x="12mm" y="11mm" width="0.5mm" height="0.5mm" /><rect x="2mm" y="11.5mm" width="0.5mm" height="0.5mm" /><rect x="5mm" y="11.5mm" width="0.5mm" height="0.5mm" /><rect x="6.5mm" y="11.5mm" width="0.5mm" height="0.5mm" /><rect x="7mm" y="11.5mm" width="0.5mm" height="0.5mm" /><rect x="8.5mm" y="11.5mm" width="0.5mm" height="0.5mm" /><rect x="9mm" y="11.5mm" width="0.5mm" height="0.5mm" /><rect x="10mm" y="11.5mm" width="0.5mm" height="0.5mm" /><rect x="10.5mm" y="11.5mm" width="0.5mm" height="0.5mm" /><rect x="11mm" y="11.5mm" width="0.5mm" height="0.5mm" /><rect x="11.5mm" y="11.5mm" width="0.5mm" height="0.5mm" /><rect x="12mm" y="11.5mm" width="0.5mm" height="0.5mm" /><rect x="2mm" y="12mm" width="0.5mm" height="0.5mm" /><rect x="2.5mm" y="12mm" width="0.5mm" height="0.5mm" /><rect x="3mm" y="12mm" width="0.5mm" height="0.5mm" /><rect x="3.5mm" y="12mm" width="0.5mm" height="0.5mm" /><rect x="4mm" y="12mm" width="0.5mm" height="0.5mm" /><rect x="4.5mm" y="12mm" width="0.5mm" height="0.5mm" /><rect x="5mm" y="12mm" width="0.5mm" height="0.5mm" /><rect x="6mm" y="12mm" width="0.5mm" height="0.5mm" /><rect x="7.5mm" y="12mm" width="0.5mm" height="0.5mm" /><rect x="9.5mm" y="12mm" width="0.5mm" height="0.5mm" /><rect x="10mm" y="12mm" width="0.5mm" height="0.5mm" /><rect x="10.5mm" y="12mm" width="0.5mm" height="0.5mm" /></svg>
